<?xml version="1.0" encoding="UTF-8"?>
<svg id="Layer_2" data-name="Layer 2" xmlns="http://www.w3.org/2000/svg" viewBox="0 0 1574.65 1929.44">
  <defs>
    <style>
      .cls-1 {
        fill: #0767f1;
      }
    </style>
  </defs>
  <g id="Layer_1" data-name="Layer 1">
    <g>
      <path class="cls-1" d="M853.13,22.25c-6.36-4.84-13.15-8.96-20.3-12.21-14.45-6.72-29.91-10.04-45.37-10.04h-.22c-15.61,0-31.28,3.32-45.95,10.26-6.94,3.25-13.51,7.22-19.72,11.92L55.99,506.45c-77.72,56.55-73.86,173.67,7.42,224.98l111.2,70.2,197.23,124.48,355.59,224.46c4.7,3.18,9.68,5.92,14.74,8.24,14.45,6.65,29.84,9.83,45.08,9.83h.22c15.32,0,30.78-3.25,45.37-9.97,4.91-2.31,9.75-4.98,14.38-8.02l355.59-224.47,197.3-124.55,111.16-70.19c81.26-51.31,85.12-168.43,7.4-224.97L853.13,22.25ZM1014.17,788.91l-193.23,121.97c-20.54,12.96-46.69,12.96-67.23,0l-193.24-121.97-197.3-124.55-56.36-35.57c-12.98-8.19-13.6-26.9-1.19-35.93l444.65-323.52c22.09-16.07,52.01-16.07,74.1,0l444.65,323.52c12.41,9.03,11.79,27.74-1.19,35.93l-56.36,35.57-197.3,124.55Z"/>
      <path class="cls-1" d="M1494.38,870.26l-588.58,371.48c-8.81,5.78-18.13,10.91-27.67,15.32-1.52.72-2.96,1.37-4.48,2.02l-.14.09c-52.66,33.23-119.73,33.22-172.38-.01h0c-1.37-.58-2.82-1.23-4.19-1.88-9.61-4.41-19.15-9.68-28.18-15.53L80.26,870.26h0c-89.35,65-84.91,199.66,8.53,258.64l638.64,403.12c4.7,3.18,9.68,5.85,14.74,8.24,14.45,6.65,29.84,9.83,45.08,9.83h.22c15.32,0,30.78-3.25,45.37-10.04,4.91-2.24,9.75-4.91,14.38-7.95l638.65-403.18c93.44-58.99,97.87-193.64,8.52-258.65h0ZM1494.38,1249.62l-588.58,371.48c-8.81,5.78-18.13,10.91-27.67,15.32-1.52.72-2.96,1.37-4.48,2.02l-.14.09c-52.66,33.23-119.73,33.22-172.38-.01h0c-1.37-.58-2.82-1.23-4.19-1.88-9.61-4.41-19.15-9.68-28.18-15.53L80.26,1249.62h0c-89.35,65-84.91,199.66,8.53,258.64l638.64,403.12c4.7,3.18,9.68,5.85,14.74,8.24,14.45,6.65,29.84,9.83,45.08,9.83h.22c15.32,0,30.78-3.25,45.37-10.04,4.91-2.24,9.75-4.91,14.38-7.95l638.65-403.18c93.44-58.99,97.87-193.64,8.52-258.65h0ZM1049.99,638.14l-106.09,66.98c-14.5,9.15-33.11,8.54-46.97-1.54l-84.1-61.18c-15.17-11.05-35.83-11.05-51,0l-84.1,61.18c-13.86,10.09-32.48,10.7-46.97,1.54l-106.09-66.98c-24.95-15.75-26.21-51.69-2.42-69.15l226.03-165.87c23.25-17.06,54.88-17.06,78.13,0l226.03,165.87c23.79,17.46,22.53,53.4-2.42,69.15Z"/>
    </g>
  </g>
</svg>